<svg xmlns="http://www.w3.org/2000/svg" width="256" height="256" viewBox="0 0 100 100"><rect width="100" height="100" rx="20" fill="#330033"></rect><path fill="#fff" d="M11.96 72.76L11.96 67.48L16.20 66.76L16.20 36.68L11.48 35.24L11.48 29.00L26.04 27.24L26.68 27.56L28.28 29.80L28.28 33.80Q30.84 31.16 35.80 29.28Q40.76 27.40 44.28 27.40L44.28 27.40Q48.60 27.40 51.28 28.84Q53.96 30.28 55.32 33.32L55.32 33.32Q58.04 30.76 62.16 29.08Q66.28 27.40 70.52 27.40L70.52 27.40Q77.56 27.40 80.64 31.48Q83.72 35.56 83.72 44.84L83.72 44.84L83.72 66.76L88.52 67.48L88.52 72.76L66.84 72.76L66.84 67.48L70.44 66.76L70.44 45.16Q70.44 39.40 69.12 37.16Q67.80 34.92 64.28 34.92L64.28 34.92Q60.60 34.92 56.60 38.04L56.60 38.04Q57.08 41 57.08 44.84L57.08 44.84L57.08 66.76L61.56 67.48L61.56 72.76L39.72 72.76L39.72 67.48L43.72 66.76L43.72 44.92Q43.72 39.24 42.48 37.08Q41.24 34.92 37.80 34.92L37.80 34.92Q35.56 34.92 33.36 35.92Q31.16 36.92 29.56 38.36L29.56 38.36L29.56 66.76L33.88 67.48L33.88 72.76L11.96 72.76Z"></path></svg>